<?xml version="1.0" encoding="utf-8"?>
<!-- Generator: Adobe Illustrator 19.2.0, SVG Export Plug-In . SVG Version: 6.00 Build 0)  -->
<svg version="1.1" id="Layer_1" xmlns="http://www.w3.org/2000/svg" xmlns:xlink="http://www.w3.org/1999/xlink" x="0px" y="0px"
	 viewBox="0 0 17 17" style="enable-background:new 0 0 17 17;" xml:space="preserve">
<style type="text/css">
	.st0{fill:#0070FF;}
</style>
<path class="st0" d="M17,6.8c0,2.3-1.9,4.2-4.2,4.2H10v-1h2.8c1.8,0,3.2-1.5,3.2-3.2s-1.5-3.2-3.2-3.2c-0.5,0-1.1,0.1-1.6,0.4
	l-0.4,0.2l-0.3-0.3C9.9,3,8.8,2.5,7.8,2.5c-1.7,0-3.1,1.1-3.6,2.7L4,5.6L3.6,5.5c-0.1,0-0.2,0-0.4,0C2,5.5,1,6.5,1,7.7S2,10,3.2,10
	h3.7v1H3.2C1.5,11,0,9.5,0,7.8c0-1.8,1.5-3.3,3.4-3.2c0.7-1.8,2.4-3,4.4-3c1.2,0,2.4,0.5,3.3,1.4c0.5-0.2,1.1-0.4,1.7-0.4
	C15.1,2.5,17,4.4,17,6.8z M10.6,8.9l0.7-0.7L8.5,5.3L5.6,8.1l0.7,0.7L8,7.2V15h1V7.2L10.6,8.9z"/>
</svg>
