<?xml version="1.0" encoding="utf-8"?>
<!-- Generator: Adobe Illustrator 19.2.0, SVG Export Plug-In . SVG Version: 6.00 Build 0)  -->
<svg version="1.1" id="Layer_1" xmlns="http://www.w3.org/2000/svg" xmlns:xlink="http://www.w3.org/1999/xlink" x="0px" y="0px"
	 viewBox="0 0 17 17" style="enable-background:new 0 0 17 17;" xml:space="preserve">
<style type="text/css">
	.st0{fill:#0070FF;}
</style>
<path class="st0" d="M17,1.5v8c0,0.8-0.7,1.5-1.5,1.5H15v-1h0.5c0.3,0,0.5-0.2,0.5-0.5v-8C16,1.2,15.8,1,15.5,1h-14
	C1.2,1,1,1.2,1,1.5v8C1,9.7,1.2,10,1.5,10H3v2.9l1.8-1.6L5.4,12l-3.4,3V11H1.5C0.7,11,0,10.3,0,9.5v-8C0,0.7,0.7,0,1.5,0h14
	C16.3,0,17,0.7,17,1.5z M14,9.5v3c0,0.8-0.7,1.5-1.5,1.5H12v3.1l-3.7-3.1H7.5c-0.8,0-1.5-0.7-1.5-1.5v-3C6,8.7,6.7,8,7.5,8h5
	C13.3,8,14,8.7,14,9.5z M13,9.5C13,9.3,12.8,9,12.5,9h-5C7.2,9,7,9.3,7,9.5v3c0,0.3,0.2,0.5,0.5,0.5h1.2L11,15v-1.9h1.5
	c0.3,0,0.5-0.2,0.5-0.5V9.5z"/>
</svg>
