<?xml version="1.0" encoding="utf-8"?>
<!-- Generator: Adobe Illustrator 19.2.0, SVG Export Plug-In . SVG Version: 6.00 Build 0)  -->
<svg version="1.1" id="Layer_1" xmlns="http://www.w3.org/2000/svg" xmlns:xlink="http://www.w3.org/1999/xlink" x="0px" y="0px"
	 viewBox="0 0 17 17" style="enable-background:new 0 0 17 17;" xml:space="preserve">
<style type="text/css">
	.st0{fill:#0070FF;}
</style>
<path class="st0" d="M2,11h13V3H2V11z M3,4h11v6H3V4z M15.5,1h-14C0.7,1,0,1.6,0,2.4v10.2C0,13.4,0.7,14,1.5,14h14
	c0.8,0,1.5-0.6,1.5-1.4V2.4C17,1.6,16.3,1,15.5,1z M16,12.6c0,0.2-0.2,0.4-0.5,0.4h-14C1.2,13,1,12.8,1,12.6V2.4C1,2.2,1.2,2,1.5,2
	h14C15.8,2,16,2.2,16,2.4V12.6z M5,15h7v1H5V15z"/>
</svg>
