<?xml version="1.0" encoding="utf-8"?>
<!-- Generator: Adobe Illustrator 19.2.0, SVG Export Plug-In . SVG Version: 6.00 Build 0)  -->
<svg version="1.1" id="Layer_1" xmlns="http://www.w3.org/2000/svg" xmlns:xlink="http://www.w3.org/1999/xlink" x="0px" y="0px"
	 viewBox="0 0 17 17" style="enable-background:new 0 0 17 17;" xml:space="preserve">
<style type="text/css">
	.st0{fill:#0070FF;}
</style>
<path class="st0" d="M15.7,6c-1-3.6-3.9-6-7.2-6C5.2,0,2.3,2.5,1.3,6C0.6,6.1,0,6.7,0,7.5v4c0,0.6,0.4,1.2,0.9,1.4
	C1.1,14.6,2.6,16,4.4,16h2.7c0.2,0.6,0.8,1,1.4,1h3c0.8,0,1.5-0.7,1.5-1.5S12.3,14,11.5,14h-3c-0.7,0-1.2,0.4-1.4,1H4.4
	c-1.2,0-2.2-0.9-2.4-2H3v-1h1V7H3V6H2.4c0.9-3,3.4-5,6.1-5c2.8,0,5.2,2,6.1,5H14v1h-1v5h1v1h1.5c0.8,0,1.5-0.7,1.5-1.5v-4
	C17,6.7,16.4,6.1,15.7,6z M8.5,15h3c0.3,0,0.5,0.2,0.5,0.5S11.8,16,11.5,16h-3C8.2,16,8,15.8,8,15.5S8.2,15,8.5,15z M2,12H1.5
	C1.2,12,1,11.8,1,11.5v-4C1,7.2,1.2,7,1.5,7H2V12z M16,11.5c0,0.3-0.2,0.5-0.5,0.5H15V7h0.5C15.8,7,16,7.2,16,7.5V11.5z"/>
</svg>
