<?xml version="1.0" encoding="utf-8"?>
<!-- Generator: Adobe Illustrator 19.2.0, SVG Export Plug-In . SVG Version: 6.00 Build 0)  -->
<svg version="1.1" id="Layer_1" xmlns="http://www.w3.org/2000/svg" xmlns:xlink="http://www.w3.org/1999/xlink" x="0px" y="0px"
	 viewBox="0 0 17 17" style="enable-background:new 0 0 17 17;" xml:space="preserve">
<style type="text/css">
	.st0{fill:#0070FF;}
</style>
<path class="st0" d="M8.5,0C3.8,0,0,3.8,0,8.5S3.8,17,8.5,17S17,13.2,17,8.5S13.2,0,8.5,0z M8.5,16C4.4,16,1,12.6,1,8.5S4.4,1,8.5,1
	S16,4.4,16,8.5S12.6,16,8.5,16z M9.7,12.2c0,0.6-0.5,1-1,1c-0.6,0-1-0.5-1-1c0-0.6,0.5-1,1-1C9.2,11.2,9.7,11.6,9.7,12.2z M10.7,4.2
	c0.4,0.6,0.7,1.3,0.6,1.9c-0.2,1-0.8,1.6-1.4,2C9.3,8.6,8.9,9,8.9,9.8h-1c0-1.3,0.7-1.9,1.3-2.4c0.5-0.4,0.9-0.8,1.1-1.5
	c0-0.1,0-0.6-0.4-1C9.6,4.4,9.1,4.2,8.6,4.2c-1.8,0-1.9,1.4-1.9,1.6l-1,0c0-0.9,0.7-2.6,2.9-2.6C9.4,3.2,10.2,3.6,10.7,4.2z"/>
</svg>
