<?xml version="1.0" encoding="utf-8"?>
<!-- Generator: Adobe Illustrator 19.2.0, SVG Export Plug-In . SVG Version: 6.00 Build 0)  -->
<svg version="1.1" id="Layer_1" xmlns="http://www.w3.org/2000/svg" xmlns:xlink="http://www.w3.org/1999/xlink" x="0px" y="0px"
	 viewBox="0 0 17 17" style="enable-background:new 0 0 17 17;" xml:space="preserve">
<style type="text/css">
	.st0{fill:#0070FF;}
</style>
<path class="st0" d="M9.5,11c0,0.4-0.2,0.7-0.5,0.8V14H8v-2.2c-0.3-0.2-0.5-0.5-0.5-0.8c0-0.6,0.4-1,1-1C9.1,10,9.5,10.4,9.5,11z
	 M15,8.5v7.1c0,0.8-0.7,1.5-1.5,1.5h-10C2.6,17,2,16.4,2,15.5V8.5C2,7.6,2.6,7,3.5,7h0V5c0-2.8,2.2-5,5-5s5,2.2,5,5v2
	C14.3,7,15,7.6,15,8.5z M4.5,7h8V5c0-2.2-1.8-4-4-4s-4,1.8-4,4V7z M14,8.5C14,8.2,13.8,8,13.5,8v0h-10v0h0C3.2,8,3,8.2,3,8.5v7.1
	C3,15.8,3.2,16,3.5,16h10c0.3,0,0.5-0.2,0.5-0.5C14,15.5,14,8.5,14,8.5z"/>
</svg>
